<svg xmlns="http://www.w3.org/2000/svg" viewBox="0 0 320 140"><defs><linearGradient id="j" x2="0" y2="1"><stop stop-color="#092847"/><stop offset="1" stop-color="#0a111d"/></linearGradient></defs><rect width="320" height="140" fill="url(#j)"/><circle cx="157" cy="42" r="31" fill="#e88739"/><g fill="#164b3b"><path d="M0 95q30-55 51-14t38 0q23-45 54 3t43-5q27-48 56 4t78-4v61H0z"/></g><path d="M0 115q80-36 161-8t159-7v40H0z" fill="#173327"/><g fill="#342421"><circle cx="110" cy="62" r="13"/><path d="M98 78h24l14 41H83z"/><circle cx="222" cy="63" r="12"/><path d="M207 79h28l20 40h-63z"/></g><path d="M120 81l68-13M210 80l-62-15" stroke="#b9c8a9" stroke-width="8"/><path d="M177 68h22m-57-3h-20" stroke="#303434" stroke-width="6"/><text x="160" y="133" text-anchor="middle" fill="#fff" stroke="#b01c25" stroke-width="2" font-family="Arial" font-weight="900" font-size="29" letter-spacing="3">CONTRA</text></svg>
