<svg xmlns="http://www.w3.org/2000/svg" viewBox="0 0 320 140"><rect width="320" height="140" fill="#080623"/><g fill="none" stroke="#4a36ef" stroke-width="5"><path d="M8 8h304v124H8zM23 22h58v25H43v26h54M112 22h95v25h-64v27h48M225 22h72v54h-49M24 91h73v25H43M118 89h81v27h-58M218 90h80v26h-54"/></g><g fill="#f5d726"><circle cx="61" cy="61" r="3"/><circle cx="80" cy="61" r="3"/><circle cx="99" cy="61" r="3"/><circle cx="118" cy="61" r="3"/><circle cx="225" cy="104" r="3"/><circle cx="244" cy="104" r="3"/><path d="M174 66a20 20 0 1 0 0 25l-17-12z"/></g><path d="M259 48q0-15 15-15t15 15v24l-7-6-7 6-7-6-9 6z" fill="#f03849"/><circle cx="270" cy="51" r="3" fill="#fff"/><circle cx="281" cy="51" r="3" fill="#fff"/><text x="160" y="130" text-anchor="middle" fill="#ffdf22" font-family="Arial" font-weight="bold" font-size="17" letter-spacing="3">PAC-MAN</text></svg>
